<?xml version="1.0" standalone="no"?>
<!DOCTYPE svg PUBLIC "-//W3C//DTD SVG 20010904//EN"
 "http://www.w3.org/TR/2001/REC-SVG-20010904/DTD/svg10.dtd">
<svg version="1.0" xmlns="http://www.w3.org/2000/svg"
 width="450.000000pt" height="183.000000pt" viewBox="0 0 450.000000 183.000000"
 preserveAspectRatio="xMidYMid meet">
<metadata>
Created by potrace 1.10, written by Peter Selinger 2001-2011
</metadata>
<g transform="translate(0.000000,183.000000) scale(0.100000,-0.100000)"
fill="#ff0000" stroke="none">
<path d="M3025 1813 c-81 -11 -198 -49 -280 -91 -213 -110 -356 -313 -411
-582 -22 -112 -15 -371 14 -475 91 -331 312 -539 638 -601 118 -22 325 -15
439 16 86 23 263 106 278 130 6 11 -18 71 -82 204 -103 213 -83 199 -206 150
-62 -24 -83 -28 -190 -28 -112 -1 -124 1 -177 27 -73 36 -149 119 -179 195
-20 48 -23 76 -23 177 0 157 20 213 109 302 53 53 71 64 135 84 95 28 212 23
321 -16 130 -46 107 -62 209 151 50 103 89 193 86 200 -7 18 -121 78 -204 108
-132 47 -335 68 -477 49z m255 -28 c118 -9 315 -74 383 -127 17 -13 17 -16 3
-43 -9 -17 -45 -91 -80 -166 -36 -75 -69 -140 -75 -143 -6 -4 -20 -2 -32 5
-87 46 -288 69 -376 43 -190 -57 -293 -211 -293 -438 0 -66 42 -202 78 -252
42 -57 119 -118 177 -139 102 -36 282 -24 392 26 24 10 46 19 51 19 10 0 162
-319 162 -341 0 -24 -136 -89 -250 -119 -162 -43 -407 -38 -545 11 -268 94
-436 285 -505 570 -28 120 -23 417 9 529 25 84 89 218 129 270 135 173 332
277 562 297 36 3 67 7 69 9 3 2 18 2 35 -1 17 -2 65 -7 106 -10z"/>
<path d="M1498 1782 c-130 -2 -149 -5 -157 -21 -23 -43 -520 -1656 -513 -1663
5 -5 76 -7 158 -6 l149 3 44 143 45 142 251 0 251 0 38 -135 c21 -74 44 -139
50 -144 13 -11 343 -17 353 -7 7 7 -455 1656 -468 1672 -14 17 -39 19 -201 16z
m152 -24 c0 -34 -161 -523 -178 -542 -11 -11 -29 -52 -42 -91 -12 -38 -24 -77
-27 -85 -3 -8 -7 -19 -8 -25 -9 -38 -59 -192 -65 -200 -4 -5 -7 -17 -7 -25 0
-8 -3 -25 -7 -37 -10 -30 12 -30 23 0 5 12 40 122 77 245 38 122 71 216 73
210 3 -7 35 -116 71 -243 l66 -230 -148 -3 c-81 -1 -148 -4 -148 -7 0 -27
-106 -334 -119 -345 -10 -8 -35 -67 -56 -130 -20 -63 -42 -120 -47 -127 -7 -9
-47 -12 -130 -11 l-120 1 5 33 c5 27 110 374 152 499 7 22 27 85 44 140 16 55
49 161 72 235 23 74 44 140 45 146 1 7 11 38 22 70 11 33 45 142 77 244 69
224 62 203 64 213 0 4 7 20 16 36 l14 29 128 1 c70 1 129 4 132 6 9 9 21 5 21
-7z m59 -108 c11 -41 34 -124 51 -185 18 -60 33 -117 35 -125 2 -8 20 -71 40
-140 20 -69 38 -132 40 -140 2 -8 18 -64 35 -124 18 -60 33 -117 35 -126 3
-18 159 -571 180 -640 8 -24 11 -47 9 -50 -3 -3 -70 -6 -149 -8 -169 -3 -149
-18 -195 148 -18 62 -39 120 -48 129 -13 14 -47 16 -248 13 -128 -1 -235 2
-238 6 -3 5 16 72 41 149 l45 141 141 1 c180 2 180 2 150 109 -37 133 -63 224
-94 329 l-30 101 40 127 c23 70 41 134 41 141 0 8 5 14 10 14 6 0 10 9 10 20
0 19 46 174 57 193 10 17 23 -9 42 -83z"/>
<path d="M235 970 l-199 -200 199 -200 c110 -110 207 -200 216 -200 8 0 59 45
113 99 82 84 96 103 88 118 -6 10 -48 55 -95 100 l-84 80 95 97 96 97 -104
104 c-58 58 -109 105 -115 105 -6 0 -100 -90 -210 -200z m308 81 c42 -43 77
-84 77 -91 0 -7 -32 -44 -71 -83 -111 -110 -110 -106 -52 -168 26 -29 65 -68
86 -87 20 -19 37 -40 37 -46 0 -6 -38 -49 -84 -95 -71 -71 -86 -82 -102 -73
-35 20 -356 350 -352 362 9 27 344 358 363 359 13 0 49 -29 98 -78z"/>
<path d="M3949 1073 c-55 -53 -99 -103 -99 -110 0 -8 40 -56 90 -107 l89 -92
-89 -89 c-50 -49 -90 -94 -90 -100 0 -16 194 -205 210 -205 16 0 400 379 400
395 0 12 -392 405 -404 405 -5 0 -53 -44 -107 -97z m297 -115 c101 -101 184
-187 184 -191 0 -11 -360 -367 -371 -367 -11 0 -179 163 -179 174 0 4 38 45
85 92 47 48 85 93 85 101 0 9 -39 55 -87 104 -47 49 -85 91 -82 93 40 44 174
176 177 176 2 0 87 -82 188 -182z"/>
</g>
</svg>
